<svg width="30" height="30" viewBox="0 0 40 39" fill="white" xmlns="http://www.w3.org/2000/svg">
<path fill-rule="evenodd" clip-rule="evenodd" d="M35.8701 3.94343L39.0518 12.7793C39.744 14.4902 39.5729 16.4294 38.5918 17.9926C37.757 19.1773 36.5489 20.0479 35.161 20.4651V33.4984C35.1308 34.9625 34.5201 36.3546 33.4632 37.3683C32.4064 38.382 30.99 38.9342 29.526 38.9034H11.011C9.5287 38.9603 8.08557 38.4203 7.00476 37.4043C5.92396 36.3884 5.29579 34.9814 5.26096 33.4984V20.6568C3.91154 20.3477 2.69609 19.6158 1.79179 18.5676C0.491503 16.9445 0.16902 14.7457 0.948455 12.8176L4.11096 3.96259C4.8568 2.07412 6.70022 0.850281 8.73012 0.895927H31.251C33.2777 0.841599 35.1226 2.0588 35.8701 3.94343ZM22.5904 35.7793H22.6068V35.8368C22.601 35.8177 22.5955 35.7985 22.5904 35.7793ZM22.5904 35.7793H17.7193C17.7375 35.6329 17.7375 35.4848 17.7193 35.3384V31.2943C17.7527 30.6861 18.0341 30.1183 18.4978 29.7234C18.9615 29.3285 19.5669 29.1412 20.1726 29.2051C21.3771 29.1168 22.4283 30.0142 22.5301 31.2176V35.3193C22.5301 35.4747 22.5504 35.6293 22.5904 35.7793ZM29.4301 35.7793H25.386C25.4042 35.6329 25.4042 35.4848 25.386 35.3384V31.2943C25.2819 28.4719 22.9189 26.263 20.096 26.3493C17.2657 26.2522 14.8908 28.4642 14.7868 31.2943V35.3959C14.7685 35.5423 14.7685 35.6904 14.7868 35.8368H10.9151C9.50328 35.9019 8.30412 34.8141 8.23179 33.4026V20.6184C10.7855 20.2329 12.8365 18.3116 13.3876 15.7884C14.0627 18.8495 16.8722 20.9587 20.0001 20.7526C23.0715 20.8813 25.7933 18.7895 26.4593 15.7884C26.9986 18.4704 29.2198 20.4898 31.941 20.7718V33.4984C31.8237 34.8046 30.7413 35.8127 29.4301 35.8368V35.7793ZM33.2635 17.3984C34.2796 17.3717 35.2209 16.8583 35.7935 16.0184V16.0759C36.1911 15.4059 36.2411 14.5851 35.9276 13.8718L32.7651 5.15093C32.4846 4.58057 31.8847 4.23885 31.251 4.28843H8.73012C8.12043 4.23268 7.53492 4.54045 7.23512 5.07426L4.07262 13.8718C3.66161 14.6852 3.73542 15.6595 4.26429 16.4018C4.742 16.9888 5.42939 17.3668 6.18096 17.4559C6.42291 17.4841 6.66733 17.4841 6.90929 17.4559C8.38409 17.5365 9.71605 16.5794 10.1101 15.1559C10.4026 13.5358 11.799 12.348 13.4451 12.3193C15.109 12.3185 16.5249 13.531 16.7801 15.1751C17.1703 16.6073 18.5196 17.5631 20.0001 17.4559C21.4928 17.5554 22.8419 16.5699 23.201 15.1176C23.4782 13.4858 24.8809 12.2846 26.536 12.2618C28.1936 12.2595 29.6072 13.4619 29.871 15.0984C30.2614 16.5413 31.6192 17.5054 33.1101 17.3984H33.2635Z" fill="#fff"/>
</svg>
